# xmcd
# Copyright (C) 1995-1998 Ti Kan
#
# Track frame offsets:
#       180
#       14752
#       27712
#       42340
#       77824
#       90230
#       101495
#       114870
#       141231
#       168734
#       180976
#       193705
#       217173
#       231350
#       246737
#       258441
#       290479
#       304430
#       312129
#
# Disc length: 4356 seconds
#
# Revision: 0
# Processed by: cddbd v1.5.1PL0 Copyright (c) Steve Scherf et al.
# Submitted via: CD-Transfer v1.0
#
DISCID=1b110213
DTITLE=Various Artist - 
DYEAR=1900
DGENRE=
TTITLE0=Demon Thor   Good old Oak
TTITLE1=Demon Thor   I don't know
TTITLE2=Chammartin and Popcorn Fusion   People kill the World
TTITLE3=Rumpelstilz   Freedom
TTITLE4=Grünspan   Bärner Rock
TTITLE5=Lost Peace   After a big Steak
TTITLE6=Peter Hinnen und Schifer Schafer   Nudel Jodel
TTITLE7=Dandelion   I look for a Hold
TTITLE8=Aladdin   Dr Zouberer
TTITLE9=Blues Shouters   Typewriter Boogie
TTITLE10=Popcorn   Night at the Sea
TTITLE11=Asphalt Blues Company    No Number
TTITLE12=Span   Rock'n' Roll
TTITLE13=Housi Wittlin   Vercherti Wäut
TTITLE14=Why   Disco-La-La
TTITLE15=Polo's Schmetterding   Obe ufem Wachtturm
TTITLE16=Yours Truly   One Night Lover
TTITLE17=Glueams   365
TTITLE18=Ocean   Take care of my Feelings
EXTD=
EXTT0=
EXTT1=
EXTT2=
EXTT3=
EXTT4=
EXTT5=
EXTT6=
EXTT7=
EXTT8=
EXTT9=
EXTT10=
EXTT11=
EXTT12=
EXTT13=
EXTT14=
EXTT15=
EXTT16=
EXTT17=
EXTT18=
PLAYORDER=
